# xmcd CD database file
#
# Track frame offsets:
#	150
#	16022
#	26005
#	43824
#	58457
#	78300
#	90693
#	102041
#	112233
#	130443
#	142460
#
# Disc length: 2140 seconds
#
# Revision: 0
# Processed by: cddbd v1.5.2PL0 Copyright (c) Steve Scherf et al.
# Submitted via: CDex 1.78
#
DISCID=9f085a0b
DTITLE=Shy Anne Mailen - Making My Dreams Come True
DYEAR=2015
DGENRE=Country
TTITLE0=Making My Dreams Come True
TTITLE1=No Worries
TTITLE2=Dear Momma
TTITLE3=Dear Old Guitar
TTITLE4=Radiant Redbird
TTITLE5=Little Jewel Rose
TTITLE6=Fiddlin' In The Barn
TTITLE7=Can You Hear Me Now
TTITLE8=It Made Them Smile
TTITLE9=Let Glory Ring
TTITLE10=Mustard Seed
EXTD=YEAR: 2015
EXTT0=
EXTT1=
EXTT2=
EXTT3=
EXTT4=
EXTT5=
EXTT6=
EXTT7=
EXTT8=
EXTT9=
EXTT10=
PLAYORDER=
